<svg version="1.1" xmlns="http://www.w3.org/2000/svg" xmlns:xlink="http://www.w3.org/1999/xlink" width="48" height="48"><defs><linearGradient x1="19.96298" y1="20.29604" x2="28.39057" y2="28.05752" gradientUnits="userSpaceOnUse" id="color-1"><stop offset="0.69" stop-color="#000000" stop-opacity="0.09"></stop><stop offset="1" stop-color="#000000" stop-opacity="0"></stop></linearGradient><filter id="dropshadow-base"><feColorMatrix type="matrix" values="0 0 0 0 0  0 0 0 0 0  0 0 0 0 0  0 0 0 .8 0"></feColorMatrix> <feOffset dx="0" dy="1"></feOffset> <feGaussianBlur stdDeviation="1"></feGaussianBlur> <feComposite in="SourceGraphic"></feComposite></filter><filter id="dropshadow-banner" x="-10%" y="-10%" width="120%" height="130%"><feColorMatrix type="matrix" values="0 0 0 0 0  0 0 0 0 0  0 0 0 0 0  0 0 0 .4 0"></feColorMatrix> <feOffset dx="0" dy="1"></feOffset> <feGaussianBlur stdDeviation="0.5"></feGaussianBlur> <feComposite in="SourceGraphic"></feComposite></filter></defs><g fill="none" fill-rule="nonzero" stroke="none" stroke-width="none" stroke-linecap="butt" stroke-linejoin="miter" stroke-miterlimit="10" stroke-dasharray="" stroke-dashoffset="0" font-family="none" font-weight="none" font-size="none" text-anchor="none" style="mix-blend-mode: normal"><path d="M2,24c0,-12.15026 9.84974,-22 22,-22c12.15026,0 22,9.84974 22,22c0,12.15026 -9.84974,22 -22,22c-12.15026,0 -22,-9.84974 -22,-22z" id="base 1 17" fill-opacity="0" fill="#ffffff" stroke-width="1"></path><path d="M22.53689,20.64959c-1.24542,0 -2.22036,0.97494 -2.22036,2.22036c0,0.99672 0.58713,1.8743 1.57504,2.89022c0.4468,0.43597 0.95892,0.90082 1.52306,1.41293l0.58537,0.53087l0.58537,-0.53087c2.07906,-1.88731 3.45165,-3.13273 3.45165,-4.6567c0,-0.53069 -0.17702,-1.01228 -0.47657,-1.39024c-0.37796,-0.29954 -0.85954,-0.47657 -1.39024,-0.47657c-0.70244,0 -1.37662,0.327 -1.81666,0.84172l-0.25718,-0.25718c-0.42473,-0.36397 -0.98257,-0.58454 -1.55948,-0.58454zM27.39387,20.93918l0.35355,0.35355c0.39941,0.39941 0.64315,0.9545 0.64315,1.57721c0,1.52397 -1.37259,2.7694 -3.45165,4.6567l-0.58537,0.53087l-0.58537,-0.53087c-0.6431,-0.58378 -1.2186,-1.10615 -1.70679,-1.59434l-0.35355,-0.35355c-1.09008,-1.09008 -1.74486,-2.00978 -1.74486,-3.06236c0,-1.24542 0.97494,-2.22036 2.22036,-2.22036c0.63982,0 1.2562,0.2713 1.69354,0.70864l0.12772,0.12772c0.44013,-0.51163 1.11206,-0.83636 1.81206,-0.83636c0.62271,0 1.1778,0.24374 1.57721,0.64315zM24.31116,26.92917c-0.64262,-0.58316 -1.21217,-1.10003 -1.68556,-1.57342l-0.35355,-0.35355c-0.9407,-0.9407 -1.50166,-1.70968 -1.50166,-2.4858c0,-0.80539 0.60757,-1.41296 1.41296,-1.41296c0.42002,0 0.83268,0.18335 1.12156,0.47223l0.35355,0.35355c0.04033,0.04033 0.07825,0.08272 0.11344,0.12695h-0.14936c-0.03958,-0.1029 -0.09288,-0.2006 -0.15746,-0.29144c-0.26592,-0.19218 -0.59473,-0.30774 -0.92819,-0.30774c-0.80539,0 -1.41296,0.60757 -1.41296,1.41296c0,0.72842 0.49412,1.45054 1.33254,2.31424c0.43439,0.42338 0.93989,0.88213 1.50113,1.39143l0.04239,0.03835l0.04239,-0.03835c1.9196,-1.74197 3.18723,-2.89252 3.18723,-4.05922c0,-0.30839 -0.08908,-0.58778 -0.24424,-0.81516c-0.22738,-0.15516 -0.50677,-0.24424 -0.81516,-0.24424c-0.6217,0 -1.22725,0.40168 -1.44122,0.95274h-0.7529c-0.04876,-0.12678 -0.11836,-0.24566 -0.2042,-0.35355h0.60355c0.21396,-0.55105 0.81951,-0.95274 1.44122,-0.95274c0.40269,0 0.75593,0.15189 1.0085,0.40446c0,0 0,0 0,0l0.35355,0.35355c0.25257,0.25257 0.40446,0.60581 0.40446,1.0085c0,1.1667 -1.26762,2.31725 -3.18723,4.05922l-0.04239,0.03835z" fill="url(#color-1)" stroke-width="1"></path><path d="M25.81666,20.29604c-0.70244,0 -1.37662,0.327 -1.81666,0.84172c-0.44004,-0.51472 -1.11422,-0.84172 -1.81666,-0.84172c-1.24542,0 -2.22036,0.97494 -2.22036,2.22036c0,1.52397 1.37259,2.7694 3.45165,4.6567l0.58537,0.53087l0.58537,-0.53087c2.07906,-1.88731 3.45165,-3.13273 3.45165,-4.6567c0,-1.24542 -0.97494,-2.22036 -2.22036,-2.22036zM24.04239,26.57562l-0.04239,0.03835l-0.04239,-0.03835c-1.9196,-1.74197 -3.18723,-2.89252 -3.18723,-4.05922c0,-0.80539 0.60757,-1.41296 1.41296,-1.41296c0.6217,0 1.22725,0.40168 1.4392,0.95274h0.7529c0.21396,-0.55105 0.81951,-0.95274 1.44122,-0.95274c0.80539,0 1.41296,0.60757 1.41296,1.41296c0,1.1667 -1.26762,2.31725 -3.18723,4.05922z" fill="none" stroke-width="0"></path><path d="M28.03702,22.5164c0,1.52397 -1.37259,2.7694 -3.45165,4.6567l-0.58537,0.53087l-0.58537,-0.53087c-2.07906,-1.88731 -3.45165,-3.13273 -3.45165,-4.6567c0,-1.24542 0.97494,-2.22036 2.22036,-2.22036c0.70244,0 1.37662,0.327 1.81666,0.84172c0.44004,-0.51472 1.11422,-0.84172 1.81666,-0.84172c1.24542,0 2.22036,0.97494 2.22036,2.22036zM27.22962,22.5164c0,-0.80539 -0.60757,-1.41296 -1.41296,-1.41296c-0.6217,0 -1.22725,0.40168 -1.44122,0.95274h-0.7529c-0.21194,-0.55105 -0.8175,-0.95274 -1.4392,-0.95274c-0.80539,0 -1.41296,0.60757 -1.41296,1.41296c0,1.1667 1.26762,2.31725 3.18723,4.05922l0.04239,0.03835l0.04239,-0.03835c1.9196,-1.74197 3.18723,-2.89252 3.18723,-4.05922z" fill-opacity="0.65" fill="#141414" stroke-width="0"></path><path d="M2,24c0,-12.15026 9.84974,-22 22,-22c12.15026,0 22,9.84974 22,22c0,12.15026 -9.84974,22 -22,22c-12.15026,0 -22,-9.84974 -22,-22z" id="base 1 13 1" fill="none" stroke-width="1"></path><path d="M2,24c0,-12.15026 9.84974,-22 22,-22c12.15026,0 22,9.84974 22,22c0,12.15026 -9.84974,22 -22,22c-12.15026,0 -22,-9.84974 -22,-22z" id="base 1 9 1" fill="none" stroke-width="1"></path><path d="M2,24c0,-12.15026 9.84974,-22 22,-22c12.15026,0 22,9.84974 22,22c0,12.15026 -9.84974,22 -22,22c-12.15026,0 -22,-9.84974 -22,-22z" id="base 1 5 1" fill="none" stroke-width="1"></path><path d="M2,24c0,-12.15026 9.84974,-22 22,-22c12.15026,0 22,9.84974 22,22c0,12.15026 -9.84974,22 -22,22c-12.15026,0 -22,-9.84974 -22,-22z" id="base 1 1 1" fill="none" stroke-width="1"></path><g fill="#000000" stroke-width="1" font-family="Roboto, sans-serif" font-weight="400" font-size="14" text-anchor="start"></g><rect x="2" y="2" width="44" height="22" fill="none" stroke-width="1"></rect><path d="M2,24v-22h44v22z" fill="none" stroke-width="1"></path><path d="M2,24v-22h44v22z" fill="none" stroke-width="1"></path><path d="M2,24v-22h44v22z" fill="none" stroke-width="1"></path><path d="M2,24v-22h44v22z" fill="none" stroke-width="1"></path><g fill="#000000" stroke-width="1" font-family="Roboto, sans-serif" font-weight="400" font-size="14" text-anchor="start"></g><rect x="2" y="2" width="44" height="22" fill="none" stroke-width="1"></rect><path d="M2,24v-22h44v22z" fill="none" stroke-width="1"></path><path d="M2,24v-22h44v22z" fill="none" stroke-width="1"></path><path d="M2,24v-22h44v22z" fill="none" stroke-width="1"></path><path d="M2,24v-22h44v22z" fill="none" stroke-width="1"></path><g fill="#000000" stroke-width="1" font-family="Roboto, sans-serif" font-weight="400" font-size="14" text-anchor="start"></g><rect x="2" y="2" width="44" height="22" fill="none" stroke-width="1"></rect><path d="M2,24v-22h44v22z" fill="none" stroke-width="1"></path><path d="M2,24v-22h44v22z" fill="none" stroke-width="1"></path><path d="M2,24v-22h44v22z" fill="none" stroke-width="1"></path><path d="M2,24v-22h44v22z" fill="none" stroke-width="1"></path><g fill="#000000" stroke-width="1" font-family="Roboto, sans-serif" font-weight="400" font-size="14" text-anchor="start"></g><rect x="2" y="2" width="44" height="22" fill="none" stroke-width="1"></rect><path d="M2,24v-22h44v22z" fill="none" stroke-width="1"></path><path d="M2,24v-22h44v22z" fill="none" stroke-width="1"></path><path d="M2,24v-22h44v22z" fill="none" stroke-width="1"></path><path d="M2,24v-22h44v22z" fill="none" stroke-width="1"></path></g></svg>