<svg version="1.1" xmlns="http://www.w3.org/2000/svg" xmlns:xlink="http://www.w3.org/1999/xlink" width="48" height="48"><defs><linearGradient x1="19.96298" y1="20.29604" x2="28.39057" y2="28.05752" gradientUnits="userSpaceOnUse" id="color-1"><stop offset="1" stop-color="#000000" stop-opacity="0.36"></stop><stop offset="1" stop-color="#000000" stop-opacity="0"></stop></linearGradient><filter id="dropshadow-base"><feColorMatrix type="matrix" values="0 0 0 0 0  0 0 0 0 0  0 0 0 0 0  0 0 0 .8 0"></feColorMatrix> <feOffset dx="0" dy="1"></feOffset> <feGaussianBlur stdDeviation="1"></feGaussianBlur> <feComposite in="SourceGraphic"></feComposite></filter><filter id="dropshadow-banner" x="-10%" y="-10%" width="120%" height="130%"><feColorMatrix type="matrix" values="0 0 0 0 0  0 0 0 0 0  0 0 0 0 0  0 0 0 .4 0"></feColorMatrix> <feOffset dx="0" dy="1"></feOffset> <feGaussianBlur stdDeviation="0.5"></feGaussianBlur> <feComposite in="SourceGraphic"></feComposite></filter></defs><g fill="none" fill-rule="nonzero" stroke="none" stroke-width="none" stroke-linecap="butt" stroke-linejoin="miter" stroke-miterlimit="10" stroke-dasharray="" stroke-dashoffset="0" font-family="none" font-weight="none" font-size="none" text-anchor="none" style="mix-blend-mode: normal"><path d="M22.0614,25.93231l-0.35355,-0.35355c-1.09008,-1.09008 -1.74486,-2.00978 -1.74486,-3.06236c0,-1.24542 0.97494,-2.22036 2.22036,-2.22036c0.63982,0 1.2562,0.2713 1.69354,0.70864l0.12772,0.12772c0.44013,-0.51163 1.11206,-0.83636 1.81206,-0.83636c0.62271,0 1.1778,0.24374 1.57721,0.64315l0.35355,0.35355c0.39941,0.39941 0.64315,0.9545 0.64315,1.57721c0,1.52397 -1.37259,2.7694 -3.45165,4.6567l-0.58537,0.53087l-0.58537,-0.53087c-0.6431,-0.58378 -1.2186,-1.10615 -1.70679,-1.59434zM24.58537,27.1731c2.07906,-1.88731 3.45165,-3.13273 3.45165,-4.6567c0,-0.53069 -0.17702,-1.01228 -0.47657,-1.39024c-0.37796,-0.29954 -0.85954,-0.47657 -1.39024,-0.47657c-0.70244,0 -1.37662,0.327 -1.81666,0.84172c-0.03923,-0.04588 -0.08031,-0.09028 -0.12312,-0.13308c-0.43734,-0.43734 -1.05372,-0.70864 -1.69354,-0.70864c-1.24542,0 -2.22036,0.97494 -2.22036,2.22036c0,0.99672 0.58713,1.8743 1.57504,2.89022c0.4468,0.43597 0.95892,0.90082 1.52306,1.41293l0.58537,0.53087z" fill="url(#color-1)" stroke-width="1"></path><path transform="translate(14.31115,14.31115) scale(0.4037,0.4037)" d="M24,33.175l-1.45,-1.315c-5.15,-4.675 -8.55,-7.76 -8.55,-11.535c0,-3.085 2.415,-5.5 5.5,-5.5c1.74,0 3.41,0.81 4.5,2.085c1.09,-1.275 2.76,-2.085 4.5,-2.085c3.085,0 5.5,2.415 5.5,5.5c0,3.775 -3.4,6.86 -8.55,11.535z" fill="none" stroke-width="0"></path><path d="M2,24c0,-12.15026 9.84974,-22 22,-22c12.15026,0 22,9.84974 22,22c0,12.15026 -9.84974,22 -22,22c-12.15026,0 -22,-9.84974 -22,-22z" id="base 1 13" fill-opacity="0" fill="#ffffff" stroke-width="1"></path><path d="M24,27.70396l-0.58537,-0.53087c-2.07906,-1.88731 -3.45165,-3.13273 -3.45165,-4.6567c0,-1.24542 0.97494,-2.22036 2.22036,-2.22036c0.70244,0 1.37662,0.327 1.81666,0.84172c0.44004,-0.51472 1.11422,-0.84172 1.81666,-0.84172c1.24542,0 2.22036,0.97494 2.22036,2.22036c0,1.52397 -1.37259,2.7694 -3.45165,4.6567z" fill="#bf1919" stroke-width="0"></path><path d="M2,24c0,-12.15026 9.84974,-22 22,-22c12.15026,0 22,9.84974 22,22c0,12.15026 -9.84974,22 -22,22c-12.15026,0 -22,-9.84974 -22,-22z" id="base 1 9 1" fill="none" stroke-width="1"></path><path d="M2,24c0,-12.15026 9.84974,-22 22,-22c12.15026,0 22,9.84974 22,22c0,12.15026 -9.84974,22 -22,22c-12.15026,0 -22,-9.84974 -22,-22z" id="base 1 5 1" fill="none" stroke-width="1"></path><path d="M2,24c0,-12.15026 9.84974,-22 22,-22c12.15026,0 22,9.84974 22,22c0,12.15026 -9.84974,22 -22,22c-12.15026,0 -22,-9.84974 -22,-22z" id="base 1 1 1" fill="none" stroke-width="1"></path><g fill="#000000" stroke-width="1" font-family="Roboto, sans-serif" font-weight="400" font-size="14" text-anchor="start"></g><rect x="2" y="2" width="44" height="22" fill="none" stroke-width="1"></rect><path d="M2,24v-22h44v22z" fill="none" stroke-width="1"></path><path d="M2,24v-22h44v22z" fill="none" stroke-width="1"></path><path d="M2,24v-22h44v22z" fill="none" stroke-width="1"></path><path d="M2,24v-22h44v22z" fill="none" stroke-width="1"></path><g fill="#000000" stroke-width="1" font-family="Roboto, sans-serif" font-weight="400" font-size="14" text-anchor="start"></g><rect x="2" y="2" width="44" height="22" fill="none" stroke-width="1"></rect><path d="M2,24v-22h44v22z" fill="none" stroke-width="1"></path><path d="M2,24v-22h44v22z" fill="none" stroke-width="1"></path><path d="M2,24v-22h44v22z" fill="none" stroke-width="1"></path><path d="M2,24v-22h44v22z" fill="none" stroke-width="1"></path><g fill="#000000" stroke-width="1" font-family="Roboto, sans-serif" font-weight="400" font-size="14" text-anchor="start"></g><rect x="2" y="2" width="44" height="22" fill="none" stroke-width="1"></rect><path d="M2,24v-22h44v22z" fill="none" stroke-width="1"></path><path d="M2,24v-22h44v22z" fill="none" stroke-width="1"></path><path d="M2,24v-22h44v22z" fill="none" stroke-width="1"></path><path d="M2,24v-22h44v22z" fill="none" stroke-width="1"></path></g></svg>